<svg xmlns="http://www.w3.org/2000/svg" width="18" height="18" viewBox="0 0 18 18" fill="none">
  <path fill-rule="evenodd" clip-rule="evenodd" d="M12.1045 17.3334L12.1045 10.8792H14.2712L14.5953 8.36425H12.1037V6.75841C12.1037 6.03008 12.3062 5.53341 13.3512 5.53341H14.6828V3.28341C14.0379 3.21478 13.3897 3.1814 12.7412 3.18341C10.8212 3.18341 9.50699 4.35591 9.50699 6.50841V8.36425H7.33366V10.8792H9.50616L9.50616 17.3334H1.58699C1.07866 17.3334 0.666992 16.9217 0.666992 16.4134L0.666992 1.58675C0.666992 1.07841 1.07866 0.666748 1.58699 0.666748L16.4137 0.666748C16.922 0.666748 17.3337 1.07841 17.3337 1.58675V16.4134C17.3337 16.9217 16.922 17.3334 16.4137 17.3334H12.1045Z" fill="white"/>
</svg>