<svg xmlns="http://www.w3.org/2000/svg" width="18" height="18" viewBox="0 0 18 18" fill="none">
  <path d="M6.0875 9.00049C6.0875 10.613 7.4 11.913 9 11.913C10.6 11.913 11.9125 10.6005 11.9125 9.00049C11.9125 7.40049 10.6 6.08799 9 6.08799C7.4 6.08799 6.0875 7.40049 6.0875 9.00049ZM9 0.250488C7.7875 0.250488 6.6 0.250488 5.3875 0.312988C3.9875 0.375488 2.7375 0.700489 1.725 1.72549C0.7 2.75049 0.375 3.98799 0.3125 5.38799C0.25 6.60049 0.25 7.78799 0.25 9.00049C0.25 10.213 0.25 11.4005 0.3125 12.613C0.375 14.013 0.7 15.263 1.725 16.2755C2.75 17.3005 3.9875 17.6255 5.3875 17.688C6.6 17.7505 7.7875 17.7505 9 17.7505C10.2125 17.7505 11.4 17.7505 12.6125 17.688C14.0125 17.6255 15.2625 17.3005 16.275 16.2755C17.3 15.2505 17.625 14.013 17.6875 12.613C17.75 11.4005 17.75 10.213 17.75 9.00049C17.75 7.78799 17.75 6.60049 17.6875 5.38799C17.625 3.98799 17.3 2.73799 16.275 1.72549C15.25 0.700489 14.0125 0.375488 12.6125 0.312988C11.4125 0.23799 10.2125 0.250488 9 0.250488ZM13.4875 9.00049C13.4875 11.488 11.4875 13.488 9 13.488C6.5125 13.488 4.5125 11.488 4.5125 9.00049C4.5125 6.51299 6.5125 4.51299 9 4.51299C11.4875 4.51299 13.4875 6.51299 13.4875 9.00049ZM5.375 4.32549C5.375 4.90049 4.9125 5.37549 4.325 5.37549C3.7375 5.37549 3.275 4.91299 3.275 4.32549C3.275 3.73799 3.7375 3.27549 4.325 3.27549C4.46192 3.27233 4.59803 3.29732 4.72489 3.34893C4.85176 3.40053 4.96667 3.47765 5.0625 3.57549C5.16034 3.67132 5.23746 3.78623 5.28906 3.91309C5.34067 4.03996 5.36566 4.17607 5.3625 4.31299L5.375 4.32549Z" fill="white"/>
</svg>