<svg xmlns="http://www.w3.org/2000/svg" width="18" height="18" viewBox="0 0 18 18" fill="none">
  <path fill-rule="evenodd" clip-rule="evenodd" d="M2.75 0.25C2.08696 0.25 1.45107 0.513392 0.982233 0.982233C0.513392 1.45107 0.25 2.08696 0.25 2.75L0.25 15.25C0.25 15.913 0.513392 16.5489 0.982233 17.0178C1.45107 17.4866 2.08696 17.75 2.75 17.75H15.25C15.913 17.75 16.5489 17.4866 17.0178 17.0178C17.4866 16.5489 17.75 15.913 17.75 15.25V2.75C17.75 2.08696 17.4866 1.45107 17.0178 0.982233C16.5489 0.513392 15.913 0.25 15.25 0.25L2.75 0.25ZM4.1275 5.62125C4.52367 5.62125 4.90361 5.46387 5.18374 5.18374C5.46387 4.90361 5.62125 4.52367 5.62125 4.1275C5.62125 3.73133 5.46387 3.35139 5.18374 3.07126C4.90361 2.79113 4.52367 2.63375 4.1275 2.63375C3.73133 2.63375 3.35139 2.79113 3.07126 3.07126C2.79113 3.35139 2.63375 3.73133 2.63375 4.1275C2.63375 4.52367 2.79113 4.90361 3.07126 5.18374C3.35139 5.46387 3.73133 5.62125 4.1275 5.62125ZM5.3775 15.0162L5.3775 6.7925H2.8775L2.8775 15.0162H5.3775ZM7.0375 6.7925L9.5375 6.7925V7.89375C9.90625 7.31625 10.7163 6.53875 12.2225 6.53875C14.02 6.53875 14.9963 7.73 14.9963 9.99625C14.9963 10.105 15.0063 10.6012 15.0063 10.6012L15.0063 15.015L12.5063 15.015L12.5063 10.6025C12.5063 9.99625 12.3787 8.805 11.0312 8.805C9.6825 8.805 9.56875 10.3025 9.5375 11.2825L9.5375 15.015H7.0375L7.0375 6.7925Z" fill="white" />
</svg>