<svg xmlns="http://www.w3.org/2000/svg" width="16" height="18" viewBox="0 0 16 18" fill="none">
  <path d="M15.437 7.47143C13.9748 7.47493 12.5485 7.01894 11.3596 6.16788V12.1034C11.3592 13.2028 11.0232 14.2758 10.3965 15.179C9.76977 16.0822 8.88227 16.7726 7.85263 17.1578C6.82299 17.5429 5.70029 17.6046 4.63466 17.3345C3.56903 17.0644 2.61125 16.4754 1.88939 15.6463C1.16754 14.8172 0.716018 13.7874 0.595204 12.6948C0.47439 11.6021 0.690042 10.4986 1.21332 9.53176C1.73661 8.56496 2.54258 7.78095 3.52346 7.28458C4.50435 6.7882 5.6134 6.60311 6.70232 6.75406V9.73945C6.20403 9.58271 5.66895 9.58744 5.17351 9.75294C4.67806 9.91844 4.24758 10.2363 3.94353 10.661C3.63949 11.0858 3.47744 11.5957 3.48051 12.1181C3.48359 12.6405 3.65164 13.1485 3.96067 13.5696C4.26969 13.9908 4.70389 14.3035 5.20125 14.4632C5.69861 14.6228 6.23371 14.6212 6.73012 14.4586C7.22653 14.296 7.65887 13.9807 7.9654 13.5578C8.27193 13.1348 8.43697 12.6258 8.43696 12.1034V0.5H11.3596C11.3575 0.746808 11.3782 0.99328 11.4213 1.2363C11.5229 1.7788 11.7341 2.29489 12.0419 2.75298C12.3498 3.21108 12.7478 3.60155 13.2118 3.90053C13.8718 4.33696 14.6457 4.56958 15.437 4.56941V7.47143Z" fill="white"/>
</svg>