<svg xmlns="http://www.w3.org/2000/svg" width="18" height="18" viewBox="0 0 18 18" fill="none">
  <path d="M2.75 0.25C1.37109 0.25 0.25 1.37109 0.25 2.75L0.25 15.25C0.25 16.6289 1.37109 17.75 2.75 17.75H15.25C16.6289 17.75 17.75 16.6289 17.75 15.25V2.75C17.75 1.37109 16.6289 0.25 15.25 0.25L2.75 0.25ZM14.3555 3.53125L10.3008 8.16406L15.0703 14.4687L11.3359 14.4688L8.41406 10.6445L5.06641 14.4688H3.21094L7.54688 9.51172L2.97266 3.53125L6.80078 3.53125L9.44531 7.02734L12.5 3.53125H14.3555ZM12.8789 13.3594L6.24219 4.58203H5.13672L11.8477 13.3594H12.875H12.8789Z" fill="white"/>
</svg>